<svg width="22" height="26" viewBox="0 0 22 26" fill="none" xmlns="http://www.w3.org/2000/svg">
<path d="M11 0C17.0751 0 22 8.70339 22 14.8574C21.9999 21.0113 17.075 26 11 26C4.92496 26 0.000149078 21.0113 0 14.8574C0 8.70339 4.92487 0 11 0ZM18.6641 15.0137C18.1194 14.9231 17.6044 15.2913 17.5137 15.8359C17.0858 18.4024 15.4027 20.1454 12.6836 21.0518C12.1598 21.2265 11.8771 21.7926 12.0518 22.3164C12.2265 22.8402 12.7926 23.1229 13.3164 22.9482C16.5971 21.8546 18.9141 19.5973 19.4863 16.1641C19.5769 15.6194 19.2087 15.1044 18.6641 15.0137Z" fill="white"/>
</svg>
